<svg preserveAspectRatio="none" overflow="visible" style="display: block;" width="9" height="11" viewBox="0 0 9 11" fill="none" xmlns="http://www.w3.org/2000/svg">
<g id="Container">
<path id="Icon" d="M0 11V7.5C0 6.80833 0.24375 6.21875 0.73125 5.73125C1.21875 5.24375 1.80833 5 2.5 5H3V1C3 0.725 3.09792 0.489583 3.29375 0.29375C3.48958 0.0979166 3.725 0 4 0H5C5.275 0 5.51042 0.0979166 5.70625 0.29375C5.90208 0.489583 6 0.725 6 1V5H6.5C7.19167 5 7.78125 5.24375 8.26875 5.73125C8.75625 6.21875 9 6.80833 9 7.5V11H0V11M1 10H2V8.5C2 8.35833 2.04792 8.23958 2.14375 8.14375C2.23958 8.04792 2.35833 8 2.5 8C2.64167 8 2.76042 8.04792 2.85625 8.14375C2.95208 8.23958 3 8.35833 3 8.5V10H4V8.5C4 8.35833 4.04792 8.23958 4.14375 8.14375C4.23958 8.04792 4.35833 8 4.5 8C4.64167 8 4.76042 8.04792 4.85625 8.14375C4.95208 8.23958 5 8.35833 5 8.5V10H6V8.5C6 8.35833 6.04792 8.23958 6.14375 8.14375C6.23958 8.04792 6.35833 8 6.5 8C6.64167 8 6.76042 8.04792 6.85625 8.14375C6.95208 8.23958 7 8.35833 7 8.5V10H8V7.5C8 7.08333 7.85417 6.72917 7.5625 6.4375C7.27083 6.14583 6.91667 6 6.5 6H2.5C2.08333 6 1.72917 6.14583 1.4375 6.4375C1.14583 6.72917 1 7.08333 1 7.5V10V10M5 5V1V1V1H4V1V1V5H5V5M5 5H4V5V5V5H5V5V5V5V5" fill="#171717"/>
</g>
</svg>
